<svg xmlns="http://www.w3.org/2000/svg" width="3305" height="48" fill="none"><path fill="#D6D6D6" d="M8.374 36.1v-8.734h11.388c1.284 0 2.4.445 3.238 1.224.837.779 1.34 1.836 1.34 3.115A4.233 4.233 0 0 1 23 34.821a4.71 4.71 0 0 1-3.238 1.28H8.374zm0-15.744v-8.4h9.546c1.228 0 2.288.445 3.07 1.168.782.723 1.228 1.78 1.228 3.004s-.447 2.28-1.228 3.004c-.782.779-1.842 1.224-3.07 1.224H8.374zm90.938 3.672c0-.556 0-1.113-.056-1.67-.056-.556-.112-1.112-.224-1.668h-15.63l-2.345 3.727-2.345 3.728h12.002c-.725 2.392-2.065 4.506-3.963 6.008-1.842 1.502-4.187 2.337-6.922 2.337-3.405 0-6.42-1.391-8.597-3.672a12.725 12.725 0 0 1-3.517-8.79c0-3.338 1.34-6.398 3.573-8.679 2.233-2.225 5.303-3.616 8.708-3.616 1.508 0 2.847.223 4.131.668 1.284.445 2.4 1.057 3.461 1.835l2.066-3.338 2.121-3.337a19.968 19.968 0 0 0-5.359-2.615C84.462 4.334 82.341 4 80.052 4c-3.014 0-5.75.556-8.15 1.558a19.624 19.624 0 0 0-6.308 4.228c-4.243 4.228-5.471 8.567-6.309 12.517-.837 3.95-1.34 7.566-4.242 10.46-1.228 1.223-2.568 2.113-4.02 2.725a12.036 12.036 0 0 1-4.745.946c-3.517 0-6.643-1.447-8.931-3.672-2.29-2.28-3.685-5.34-3.685-8.734 0-3.282 1.396-6.342 3.684-8.623 2.29-2.281 5.415-3.672 8.932-3.728 1.452 0 2.847.223 4.075.668a11.06 11.06 0 0 1 3.406 1.78l2.121-3.338 2.121-3.338c-1.618-1.112-3.405-2.003-5.359-2.559-2.01-.612-4.13-.89-6.364-.89-3.46 0-6.698.834-9.546 2.281a19.533 19.533 0 0 0-7.034 6.064c-.725-2.17-2.177-4.061-4.186-5.396-2.066-1.336-4.634-2.115-7.48-2.115H0v38.387h19.873c2.513 0 4.745-.612 6.588-1.613a11.345 11.345 0 0 0 4.354-4.228 20.642 20.642 0 0 0 6.643 4.84c2.568 1.168 5.415 1.78 8.485 1.78 3.629 0 6.923-.834 9.77-2.337 2.847-1.502 5.247-3.671 7.09-6.286a19.596 19.596 0 0 0 7.033 6.286C72.683 43.166 76.033 44 79.661 44c5.527 0 10.44-2.225 13.956-5.897 3.573-3.56 5.694-8.568 5.694-14.075z"/><g fill="#D6D6D6" fill-rule="evenodd" clip-path="url(#a)" clip-rule="evenodd"><path d="M298.581 37.536c-9.296 6.816-22.768 10.463-34.384 10.463-16.272 0-30.912-5.988-42-15.958-.864-.78-.096-1.847.96-1.242 11.952 6.928 26.752 11.085 42.016 11.085 10.304 0 21.632-2.118 32.048-6.53 1.584-.653 2.896 1.035 1.36 2.182z"/><path d="M302.437 33.124c-1.184-1.513-7.856-.717-10.848-.367-.912.112-1.056-.684-.224-1.242 5.312-3.726 14.032-2.643 15.056-1.401 1.024 1.258-.272 9.953-5.264 14.11-.768.637-1.504.303-1.152-.542 1.12-2.787 3.632-9.03 2.432-10.558zM291.794 5.238V1.623c0-.542.416-.908.912-.908h16.272c.528 0 .944.382.944.908v3.105c0 .526-.448 1.195-1.232 2.277l-8.416 11.977c3.136-.08 6.448.382 9.28 1.974.64.367.816.892.864 1.402v3.854c0 .525-.592 1.146-1.2.828-5.008-2.612-11.664-2.898-17.2.032-.56.302-1.152-.303-1.152-.828V22.58c0-.59 0-1.593.592-2.485l9.776-13.95h-8.496c-.528 0-.944-.367-.944-.908zm-59.377 22.583h-4.944c-.48-.032-.848-.382-.88-.844V1.687c0-.51.432-.908.96-.908h4.624c.48.016.864.383.896.845v3.312h.096c1.2-3.201 3.472-4.682 6.512-4.682 3.104 0 5.04 1.497 6.432 4.682 1.2-3.201 3.92-4.682 6.832-4.682 2.08 0 4.352.86 5.728 2.771 1.568 2.134 1.248 5.224 1.248 7.931v15.957c0 .51-.432.908-.96.908h-4.944c-.496-.032-.896-.43-.896-.908V13.504c0-1.067.096-3.727-.144-4.746-.368-1.704-1.472-2.182-2.912-2.182-1.2 0-2.448.797-2.96 2.07-.512 1.275-.464 3.409-.464 4.842v13.41c0 .51-.432.907-.96.907h-4.928c-.496-.032-.896-.43-.896-.907v-13.41c0-2.819.464-6.975-3.056-6.975-3.552 0-3.424 4.045-3.424 6.975v13.41c0 .51-.432.923-.96.923zM323.955.238c7.344 0 11.328 6.275 11.328 14.27 0 7.708-4.4 13.84-11.328 13.84-7.216 0-11.136-6.276-11.136-14.111C312.803 6.37 316.787.238 323.955.238zm.032 5.176c-3.648 0-3.872 4.937-3.872 8.027 0 3.09-.048 9.698 3.84 9.698 3.84 0 4.016-5.319 4.016-8.568 0-2.134-.096-4.682-.736-6.704-.56-1.768-1.664-2.453-3.248-2.453zm20.816 22.408h-4.928c-.496-.032-.896-.43-.896-.908V1.608c.048-.462.448-.828.96-.828h4.592a.943.943 0 0 1 .88.7v3.87h.096c1.392-3.455 3.328-5.112 6.752-5.112 2.224 0 4.384.797 5.776 2.978 1.296 2.023 1.296 5.431 1.296 7.868v15.925c-.048.446-.464.797-.96.797h-4.96c-.448-.032-.832-.367-.88-.797V13.281c0-2.77.32-6.816-3.104-6.816-1.2 0-2.32.797-2.864 2.023-.704 1.545-.784 3.09-.784 4.793v13.617a.969.969 0 0 1-.976.924zm-65.982-12.087c0 1.927.048 3.52-.928 5.223-.784 1.386-2.048 2.246-3.424 2.246-1.904 0-3.008-1.45-3.008-3.568 0-4.204 3.776-4.968 7.376-4.968l-.016 1.067zm4.992 12.008c-.32.286-.8.318-1.168.111-1.648-1.354-1.936-1.99-2.848-3.28-2.72 2.754-4.64 3.583-8.16 3.583-4.176 0-7.408-2.564-7.408-7.677 0-3.997 2.176-6.72 5.28-8.058 2.688-1.179 6.448-1.386 9.312-1.72v-.637c0-1.178.096-2.564-.608-3.567-.592-.908-1.76-1.29-2.784-1.29-1.888 0-3.568.971-3.984 2.962-.08.446-.416.876-.864.908l-4.8-.51c-.4-.096-.864-.414-.736-1.035C266.165 1.752 271.429 0 276.133 0c2.416 0 5.552.637 7.456 2.453 2.416 2.245 2.176 5.223 2.176 8.472v7.676c0 2.31.96 3.329 1.872 4.57.32.447.384.972-.016 1.307-1.008.86-2.8 2.42-3.808 3.264zm-69.906-12.008c0 1.927.048 3.52-.928 5.223-.784 1.386-2.032 2.246-3.424 2.246-1.904 0-3.008-1.45-3.008-3.568 0-4.204 3.776-4.968 7.36-4.968v1.067zm4.992 12.008c-.32.286-.8.318-1.168.111-1.648-1.354-1.936-1.99-2.848-3.28-2.72 2.754-4.64 3.583-8.16 3.583-4.16 0-7.408-2.564-7.408-7.677 0-3.997 2.176-6.72 5.28-8.058 2.688-1.179 6.448-1.386 9.312-1.72v-.637c0-1.178.096-2.564-.592-3.567-.608-.908-1.76-1.29-2.784-1.29-1.888 0-3.568.971-3.984 2.962-.08.446-.416.876-.864.908l-4.8-.51c-.4-.096-.848-.414-.736-1.035C201.251 1.752 206.515 0 211.219 0c2.416 0 5.552.637 7.456 2.453 2.416 2.245 2.176 5.223 2.176 8.472v7.676c0 2.31.96 3.329 1.872 4.57.32.447.384.972-.016 1.307-1.008.86-2.8 2.42-3.808 3.264z"/></g><g fill="#D6D6D6" clip-path="url(#b)"><path d="M479.368.012h-20.056v47.965L479.368.012zm14.111 0h20.031v47.965L493.479.012zm-7.053 17.679 12.766 30.287h-8.375l-3.816-9.642h-9.342l8.767-20.645zm59.805 12.826 2.365 6.781c.078.17.196.249.405.249h4.547c.248 0 .288-.118.248-.366l-9.394-26.093c-.039-.209-.079-.248-.288-.248h-5.644c-.157 0-.248.117-.248.287-.079 1.372-.196 1.79-.366 2.195l-8.376 23.82c-.039.287.053.405.288.405h4.063c.249 0 .366-.079.458-.327l2.234-6.703h9.708zm-8.414-4.43c1.228-3.71 2.848-8.466 3.501-11.184h.039c.811 2.849 2.718 8.493 3.581 11.185h-7.121zm28.059 11.865a19.27 19.27 0 0 0 7.683-1.581c.209-.079.248-.17.248-.366-.078-.732-.17-1.79-.17-2.6V8.84c0-.157 0-.236-.196-.236h-4.429c-.17 0-.248.079-.248.288v8.323a14.573 14.573 0 0 0-1.751-.118c-7.147 0-11.537 4.717-11.537 10.61 0 6.834 4.507 10.244 10.4 10.244zm2.888-4.547c-.732.235-1.542.326-2.365.326-3.241 0-5.893-1.829-5.893-6.271 0-3.933 2.731-6.259 6.35-6.259.732 0 1.372.078 1.908.288v11.916zm19.172-16.307c-6.102 0-9.878 4.677-9.878 10.453 0 5.16 3.005 10.4 9.786 10.4 5.736 0 9.76-4.22 9.76-10.531 0-5.566-3.41-10.322-9.668-10.322zm-.249 4.102c3.45 0 4.913 2.966 4.913 6.35 0 4.182-2.156 6.26-4.664 6.26-3.097 0-4.926-2.601-4.926-6.351 0-3.854 1.946-6.259 4.677-6.259zm14.498-12.595c-.17 0-.288.079-.288.288v27.804c0 .118.118.327.288.366 1.947.601 3.985.889 6.089.889 6.023 0 11.877-3.737 11.877-11.263 0-5.449-3.737-9.59-9.591-9.59-1.346 0-2.6.208-3.697.574l-.053-8.74c0-.288-.078-.328-.366-.328h-4.259zm12.961 18.58c0 4.508-3.083 6.625-6.415 6.625-.693 0-1.307-.04-1.868-.21V21.738c.64-.248 1.411-.457 2.835-.457 3.214 0 5.448 2.038 5.448 5.905zm21.535 1.463c1.986 0 3.62-.04 4.182-.17.209-.039.287-.117.326-.287.118-.444.17-1.372.17-2.509 0-3.867-2.326-8.584-8.336-8.584-6.141 0-9.551 5.004-9.551 10.649 0 5.004 2.639 10.204 10.034 10.204 2.77 0 4.56-.444 6.102-1.176.157-.078.235-.209.235-.444v-3.384c0-.196-.117-.236-.235-.157-1.542.653-3.214.98-5.043.98-4.142 0-6.024-2.287-6.141-5.122h8.257zm-8.257-3.502c.326-1.986 1.581-4.142 4.39-4.142 3.097 0 3.907 2.6 3.907 3.776v.327c-.17.04-.693.04-2.235.04h-6.062z"/></g><g fill="#D6D6D6" clip-path="url(#c)"><path d="M760.526 17.127v5.128H772.9c-.329 2.836-1.314 5.018-2.847 6.436-1.752 1.745-4.599 3.709-9.527 3.709-7.555 0-13.468-6.11-13.468-13.636 0-7.528 5.803-13.637 13.468-13.637 4.052 0 7.118 1.637 9.308 3.71l3.613-3.6C770.381 2.29 766.22 0 760.526 0c-10.402 0-19.162 8.4-19.162 18.764 0 10.363 8.76 18.763 19.162 18.763 5.585 0 9.855-1.854 13.14-5.236 3.395-3.382 4.49-8.182 4.49-12 0-1.2-.109-2.291-.219-3.164h-17.411zm32.961-4.252c-6.679 0-12.264 5.127-12.264 12.11 0 6.98 5.475 12.108 12.264 12.108s12.264-5.018 12.264-12c0-7.09-5.475-12.218-12.264-12.218zm0 19.527c-3.723 0-6.898-3.054-6.898-7.309 0-4.363 3.175-7.309 6.898-7.309s6.899 2.946 6.899 7.31c0 4.254-3.176 7.308-6.899 7.308zm59.898-16.8h-.219c-1.205-1.418-3.505-2.727-6.461-2.727-6.132 0-11.388 5.236-11.388 12.11 0 6.763 5.256 12.108 11.388 12.108 2.956 0 5.256-1.309 6.461-2.727h.219v1.745c0 4.582-2.519 7.091-6.461 7.091-3.285 0-5.256-2.29-6.132-4.363l-4.599 1.963c1.314 3.164 4.927 7.2 10.84 7.2 6.242 0 11.608-3.709 11.608-12.654V13.529h-5.037v2.073h-.219zm-6.133 16.8c-3.723 0-6.46-3.163-6.46-7.309 0-4.254 2.847-7.309 6.46-7.309 3.614 0 6.461 3.164 6.461 7.418.11 4.146-2.738 7.2-6.461 7.2zm-26.499-19.527c-6.68 0-12.264 5.127-12.264 12.11 0 6.98 5.475 12.108 12.264 12.108s12.264-5.018 12.264-12c0-7.09-5.475-12.218-12.264-12.218zm0 19.527c-3.723 0-6.899-3.054-6.899-7.309 0-4.363 3.176-7.309 6.899-7.309s6.898 2.946 6.898 7.31c0 4.254-3.175 7.308-6.898 7.308zM862.692.547h5.256V37.2h-5.256V.547zm21.459 31.855c-2.737 0-4.599-1.2-5.913-3.709l16.316-6.654-.548-1.419c-.985-2.727-4.161-7.745-10.402-7.745-6.242 0-11.498 4.91-11.498 12.11 0 6.763 5.146 12.108 12.045 12.108 5.585 0 8.76-3.382 10.184-5.345l-4.161-2.728c-1.424 2.073-3.285 3.382-6.023 3.382zm-.328-14.945c2.19 0 4.051 1.09 4.599 2.618l-10.951 4.582c-.109-5.018 3.614-7.2 6.352-7.2z"/></g><g clip-path="url(#d)"><path fill="#D6D6D6" fill-rule="evenodd" d="M1203.46 14.168h-.56v.69h.56c.26 0 .43-.114.43-.345 0-.231-.16-.345-.43-.345zm-1.25-.631h1.26c.7 0 1.15.372 1.15.952 0 .162-.04.32-.12.462-.08.14-.2.257-.34.339l.5.71v.142h-.72l-.48-.69h-.56v.69h-.69v-2.605zm3.52 1.352c0-1.38-.93-2.45-2.36-2.45-1.43 0-2.34 1.004-2.34 2.45 0 1.38.93 2.454 2.34 2.454 1.4 0 2.36-1.06 2.36-2.454zm.59 0c0 1.643-1.11 3.01-2.95 3.01-1.85 0-2.92-1.38-2.92-3.01 0-1.629 1.09-3.006 2.92-3.006 1.83 0 2.93 1.367 2.93 3.006h.02zm-165.21 5.837-5.69 3.271 5.69 3.262a3 3 0 0 1 1.4 1.812c.21.765.1 1.58-.3 2.267a3.001 3.001 0 0 1-1.82 1.394 3.02 3.02 0 0 1-2.28-.296l-10.19-5.867a2.979 2.979 0 0 1-1.39-3.362c.21-.753.71-1.395 1.39-1.788l10.19-5.846a3.019 3.019 0 0 1 2.28-.296c.77.206 1.42.707 1.82 1.393.4.687.51 1.502.3 2.267a3 3 0 0 1-1.4 1.813v-.024zm-5.39 15.851-10.19-5.84a2.945 2.945 0 0 0-1.73-.39 3.01 3.01 0 0 0-1.98.944c-.51.55-.8 1.276-.8 2.028v11.693c0 .79.32 1.55.88 2.108a3.011 3.011 0 0 0 4.24 0c.56-.559.88-1.317.88-2.108v-6.557l5.72 3.299a3.01 3.01 0 0 0 2.28.295 2.995 2.995 0 0 0 1.82-1.394c.2-.34.32-.715.37-1.104.05-.39.03-.784-.07-1.163a3.122 3.122 0 0 0-.52-1.044 2.92 2.92 0 0 0-.89-.767h-.01zm-11.75-11.437-4.24 4.19a.816.816 0 0 1-.53.224h-1.24a.883.883 0 0 1-.54-.224l-4.23-4.19a.856.856 0 0 1-.22-.525v-1.239a.874.874 0 0 1 .22-.531l4.23-4.214a.878.878 0 0 1 .54-.221h1.24c.2.008.39.087.53.22l4.24 4.204c.13.147.2.335.21.532v1.239c0 .198-.08.387-.21.535zm-3.38-1.167a.951.951 0 0 0-.22-.535l-1.24-1.211a.839.839 0 0 0-.53-.221h-.05a.836.836 0 0 0-.52.22l-1.23 1.212a.883.883 0 0 0-.22.535v.045c.01.195.09.38.22.525l1.23 1.218c.14.131.33.21.52.22h.05a.84.84 0 0 0 .53-.22l1.23-1.218c.13-.145.21-.33.23-.525v-.045zm-19.15-12.57 10.19 5.847a3.015 3.015 0 0 0 4.1-1.092c.27-.454.41-.968.41-1.493V2.972c0-.79-.32-1.549-.88-2.108a3.012 3.012 0 0 0-4.24 0 2.983 2.983 0 0 0-.88 2.108V9.53l-5.71-3.29a3.01 3.01 0 0 0-2.28-.294 3 3 0 0 0-1.82 1.394 2.997 2.997 0 0 0-.3 2.266c.21.765.72 1.417 1.41 1.812v-.014zm22.36 6.237c.6.05 1.21-.087 1.73-.39l10.19-5.846a3.006 3.006 0 0 0 1.4-1.812c.1-.378.13-.773.08-1.162a3.075 3.075 0 0 0-.37-1.104c-.2-.34-.46-.638-.78-.877a3.011 3.011 0 0 0-3.33-.222l-5.7 3.289V2.958a2.994 2.994 0 0 0-3-2.982c-.79 0-1.56.315-2.12.874-.56.56-.88 1.318-.88 2.108v11.707c0 .753.29 1.478.8 2.03.52.552 1.22.89 1.98.945zm-10.44 12.725c-.6-.051-1.21.085-1.73.39l-10.19 5.822c-.35.196-.64.456-.89.767-.24.31-.41.666-.52 1.044a3.057 3.057 0 0 0-.074 1.163 2.97 2.97 0 0 0 1.144 1.98c.32.24.67.416 1.05.518a3.026 3.026 0 0 0 2.28-.295l5.71-3.272v6.557a2.994 2.994 0 0 0 3 2.982c.79 0 1.56-.314 2.12-.873.56-.56.88-1.318.88-2.109V33.32a2.973 2.973 0 0 0-.81-2.016 2.98 2.98 0 0 0-1.97-.938zm-2.77-5.477a2.895 2.895 0 0 0 .02-1.66 2.93 2.93 0 0 0-1.38-1.788l-10.164-5.878a3.02 3.02 0 0 0-2.28-.296 2.999 2.999 0 0 0-1.823 1.394 2.97 2.97 0 0 0-.298 2.267 2.988 2.988 0 0 0 1.402 1.812l5.693 3.272-5.707 3.248a2.993 2.993 0 0 0-1.4 1.817 2.972 2.972 0 0 0 .303 2.269 3.004 3.004 0 0 0 1.828 1.392c.77.204 1.591.096 2.282-.301l10.164-5.867c.66-.372 1.15-.98 1.37-1.699l-.01.018zm126.35-17.474h-.49a6.65 6.65 0 0 0-2.09.297 3.73 3.73 0 0 0-1.7 1.104 4.49 4.49 0 0 0-.97 1.878c-.19.804-.28 1.63-.27 2.457v1.788h-1.99a1.23 1.23 0 0 0-1.23 1.197c-.01.34.12.67.35.922.23.24.55.383.88.404h1.97v14.578c0 .164.04.326.1.477.07.151.16.288.28.403.24.226.57.35.9.345.33-.005.64-.137.87-.369.23-.23.35-.543.35-.867V17.461h2.13c.34-.017.65-.158.89-.394.24-.241.37-.567.37-.907v-.049a1.231 1.231 0 0 0-.37-.849 1.258 1.258 0 0 0-.87-.341h-2.15V13.14c0-.609.07-1.215.22-1.805.07-.317.21-.614.41-.87.17-.174.38-.303.61-.373.41-.116.83-.168 1.26-.155h.56c.17 0 .33-.033.49-.097.15-.064.29-.157.41-.275.12-.118.21-.258.28-.412a1.34 1.34 0 0 0 0-.972 1.353 1.353 0 0 0-.28-.412 1.33 1.33 0 0 0-.41-.276 1.3 1.3 0 0 0-.49-.096l-.02.017zm43.95 9.432c.12-.117.22-.256.28-.41.07-.154.1-.32.11-.487a1.29 1.29 0 0 0-.11-.474 1.095 1.095 0 0 0-.28-.392 1.294 1.294 0 0 0-.4-.276 1.244 1.244 0 0 0-.96 0c-.15.064-.29.158-.4.276l-9.8 9.48V8.587c0-.166-.04-.33-.1-.483a1.324 1.324 0 0 0-.28-.407 1.293 1.293 0 0 0-1.39-.261c-.15.063-.29.155-.4.271-.24.234-.37.55-.37.88v23.386c0 .33.13.644.37.877.23.233.55.365.88.369.34.005.66-.124.9-.358.25-.233.39-.553.39-.888v-3.858l3.2-3.172 6.51 7.81c.11.165.27.293.45.37.17.062.35.095.54.096.29.005.58-.088.82-.266h.01c.13-.122.23-.268.3-.43a1.264 1.264 0 0 0-.2-1.34l-6.63-8.01 6.56-6.313v-.014zm-17.7-1.608c.12.117.21.256.27.41.07.153.1.318.1.484v15.841c0 .33-.13.645-.37.878-.23.233-.55.365-.88.368a1.301 1.301 0 0 1-.89-.37 1.278 1.278 0 0 1-.37-.876v-1.546a8.427 8.427 0 0 1-9.63 2.093 8.317 8.317 0 0 1-2.83-2.017 9.463 9.463 0 0 1-2.55-6.46c0-2.395.91-4.701 2.55-6.458a8.435 8.435 0 0 1 2.83-2.008 8.491 8.491 0 0 1 6.81.022 8.471 8.471 0 0 1 2.82 2.027v-1.511c0-.167.04-.332.1-.485.07-.154.16-.293.28-.41a1.292 1.292 0 0 1 1.76.001v.017zm-2.14 8.825a6.972 6.972 0 0 0-1.85-4.77 5.847 5.847 0 0 0-1.99-1.443 5.914 5.914 0 0 0-4.81 0 5.86 5.86 0 0 0-1.99 1.443 6.93 6.93 0 0 0-1.86 4.77 6.833 6.833 0 0 0 1.87 4.728 5.83 5.83 0 0 0 1.99 1.424 6.012 6.012 0 0 0 6.81-1.424 6.91 6.91 0 0 0 1.85-4.745l-.02.017zm-100.96-.463a30.19 30.19 0 0 0-3.31-1.204c-.98-.28-1.95-.626-2.89-1.036a2.763 2.763 0 0 1-.87-.662c-.2-.23-.31-.523-.3-.825-.01-.412.11-.816.35-1.156.4-.516.94-.906 1.56-1.122a5.12 5.12 0 0 1 1.78-.366 4.93 4.93 0 0 1 3.01.963c.35.245.63.497.9.69.13.109.27.201.42.277.16.082.33.127.5.13.12.001.24-.022.35-.068a1.014 1.014 0 0 0 .53-.494.82.82 0 0 0 .07-.345c0-.22-.06-.434-.17-.625a3.74 3.74 0 0 0-.85-1 8.611 8.611 0 0 0-2.08-1.305 6.208 6.208 0 0 0-2.43-.59c-1.87 0-3.42.42-4.56 1.194-.59.372-1.09.87-1.47 1.456-.4.717-.61 1.528-.61 2.35v.132c-.01.852.27 1.684.79 2.357.74.925 1.84 1.48 2.91 1.874 1.07.393 2.14.628 2.81.852.94.272 1.85.644 2.7 1.108.34.19.63.436.87.729.2.272.31.598.31.935v.027c.01.47-.14.927-.42 1.305-.45.546-1.05.95-1.73 1.163-.6.212-1.23.329-1.87.345a7.53 7.53 0 0 1-3.5-.78c-.39-.197-.71-.39-1-.555-.15-.076-.28-.149-.42-.207a1.26 1.26 0 0 0-.46-.094.862.862 0 0 0-.59.238c-.11.099-.2.216-.27.346-.06.132-.1.277-.1.424.01.24.09.473.22.67.25.32.55.596.89.814.44.288.9.543 1.39.763 1.21.538 2.52.831 3.84.863 1.79 0 3.34-.411 4.64-1.38a4.958 4.958 0 0 0 2.07-3.972 4.379 4.379 0 0 0-.57-2.238 5.426 5.426 0 0 0-2.44-1.98zm82.05-16.262a1.27 1.27 0 0 0-.88.37c-.12.114-.21.251-.27.402-.07.151-.1.314-.1.477v23.386c0 .163.03.325.1.476.06.15.15.287.27.4a1.28 1.28 0 0 0 1.38.276 1.257 1.257 0 0 0 .79-1.152V8.587c0-.166-.03-.33-.1-.483a1.171 1.171 0 0 0-.28-.407 1.242 1.242 0 0 0-.42-.27 1.258 1.258 0 0 0-.49-.089zm57.76 16.124v.125c0 .162-.03.323-.1.471-.07.149-.17.28-.29.388-.24.207-.55.32-.87.317h-14.08c.35 3.417 3.1 5.937 6.38 5.964h.83a5.576 5.576 0 0 0 3.08-.99 7.6 7.6 0 0 0 2.3-2.416c.11-.19.27-.344.47-.445a1.246 1.246 0 0 1 1.22.024 1.313 1.313 0 0 1 .4 1.729 10.56 10.56 0 0 1-3.13 3.2 7.991 7.991 0 0 1-4.34 1.349h-.84a8.9 8.9 0 0 1-3.44-.722 8.926 8.926 0 0 1-2.88-1.995 9.23 9.23 0 0 1-2.61-6.38 9.315 9.315 0 0 1 2.62-6.51 8.741 8.741 0 0 1 2.91-1.994 8.834 8.834 0 0 1 3.45-.701 8.681 8.681 0 0 1 6.1 2.478 9.456 9.456 0 0 1 2.81 6.084l.01.024zm-2.75-1.18a6.317 6.317 0 0 0-2.22-3.52 6.433 6.433 0 0 0-3.93-1.408c-1.45.01-2.85.5-3.98 1.392a6.44 6.44 0 0 0-2.27 3.53l12.4.006zm-123.68-7.375a7.585 7.585 0 0 0-5.1 1.977v-.728c0-.324-.12-.636-.34-.873a1.197 1.197 0 0 0-.4-.277 1.207 1.207 0 0 0-.47-.1 1.31 1.31 0 0 0-.49.091c-.15.062-.29.154-.41.27-.12.117-.21.256-.27.408-.06.153-.09.316-.09.481v16.19l.05.052a1.367 1.367 0 0 0 .88.797h.33c.18-.002.36-.043.53-.12.15-.069.28-.169.39-.294 0 0 .01-.031.03-.045.06-.078.12-.164.16-.256.03-.084.05-.17.07-.258v-9.795c.03-1.34.58-2.617 1.54-3.562a5.048 5.048 0 0 1 2.59-1.402c.99-.2 2.01-.102 2.94.281a5.016 5.016 0 0 1 2.28 1.868c.56.834.85 1.814.84 2.815v9.546c0 .245.08.485.21.688.14.204.34.364.56.459a1.271 1.271 0 0 0 1.37-.253c.12-.116.21-.255.28-.409.06-.154.09-.319.09-.485v-9.546a7.567 7.567 0 0 0-2.22-5.312 7.62 7.62 0 0 0-5.35-2.208zm24.95 2.688a9.433 9.433 0 0 1 0 12.898 8.3 8.3 0 0 1-2.81 2.015 8.456 8.456 0 0 1-6.79 0 8.398 8.398 0 0 1-2.81-2.016 9.387 9.387 0 0 1-2.56-6.448c0-2.395.91-4.7 2.56-6.449a8.495 8.495 0 0 1 2.81-2.009 8.48 8.48 0 0 1 6.79 0 8.394 8.394 0 0 1 2.81 2.01zm.04 6.45a6.94 6.94 0 0 0-1.85-4.755 5.91 5.91 0 0 0-1.98-1.447 5.93 5.93 0 0 0-4.82 0 5.91 5.91 0 0 0-1.98 1.447 6.897 6.897 0 0 0-1.86 4.756 6.835 6.835 0 0 0 1.86 4.731 5.905 5.905 0 0 0 1.98 1.439c.76.335 1.58.509 2.41.509.83 0 1.65-.174 2.4-.51a5.846 5.846 0 0 0 1.99-1.438 6.878 6.878 0 0 0 1.85-4.731zm27.07-9.031a1.114 1.114 0 0 0-.45-.093 1.274 1.274 0 0 0-1.17.766l-4.8 13.039-3.69-8.742a1.23 1.23 0 0 0-.5-.563 1.345 1.345 0 0 0-.72-.204 1.31 1.31 0 0 0-.7.212c-.21.136-.38.328-.48.555l-3.71 8.748-4.82-13.035c-.08-.24-.24-.445-.46-.58a1.246 1.246 0 0 0-1.16-.11c-.3.135-.52.376-.64.673-.12.297-.12.628 0 .925l5.9 15.83c.05.126.13.243.21.346.08.083.18.153.28.207.03.026.06.05.09.072.06.032.12.054.18.066.14.052.29.08.44.083.23-.006.46-.079.66-.21.2-.133.36-.325.44-.55h.02l3.75-8.904 3.75 8.87c.08.22.23.412.41.552.18.136.4.224.62.255h.16a1.19 1.19 0 0 0 .73-.252c.2-.157.36-.362.46-.596l5.9-15.749c.12-.3.12-.636-.01-.935a1.212 1.212 0 0 0-.66-.662l-.03-.014z" clip-rule="evenodd"/></g><g fill="#D6D6D6" clip-path="url(#e)"><path d="M1324.96 36.231c-1.94 1.942-3.89 2.92-6.03 2.92-4.48 0-7.78-3.293-7.78-7.953s3.3-7.953 7.78-7.953c2.14 0 4.28.963 6.03 2.718l.19.187 2.92-3.495c-2.33-2.719-5.25-4.272-8.74-4.272-3.48 0-6.81 1.165-9.14 3.309-2.52 2.33-3.89 5.623-3.89 9.506 0 3.884 1.37 7.177 3.89 9.507 2.33 2.144 5.63 3.293 9.14 3.293 3.52 0 6.41-1.367 8.74-4.271l-3.11-3.496zm5.65 7.366h5.04V18.742h-5.04v24.855zm24.89-5.435c-1.37.777-2.52 1.165-3.7 1.165-1.56 0-2.33-.776-2.33-2.718V23.59h5.05v-4.66h-5.26v-7.767l-5.05 2.719v5.048h-4.28v4.66h4.28v13.98c0 3.884 2.33 6.4 5.63 6.4 2.33 0 3.7-.59 4.48-1.164l1.17-4.847.01.202zm4.27 5.435h5.07V18.742h-5.07v24.855z"/><path d="M1367.94 14.485A24.802 24.802 0 0 0 1347.72 4c-7.78 0-15.55 3.883-20.22 10.485l-.19.389h5.84c3.88-4.07 9.14-6.214 14.59-6.214 5.26 0 10.5 2.144 14.59 6.214h5.83l-.22-.389z"/></g><g fill="#D6D6D6" clip-path="url(#f)"><path d="M1707.29 40.27c2.28 3.72 5.87 3.72 6.87 3.72h11.74l-13.89-16.76c-6.43.28-9.75 4.32-9.03 6.04l4.31 7z"/><path d="M1703.14 33.237s-.44-.88-.44-1.88c0-3.88 3.44-6.04 7.31-6.88l2.15 2.72c-6.42.16-9.74 4.32-9.02 6.04z"/><path d="M1708.44 20.75c-5.86 0-10.14 1-10.14 3.28 0 .88.28 1.56 1 2.88l3.87 6.44s-.43-.88-.43-1.88c0-3.88 3.43-6.04 7.3-6.88 1.16-.28 2.28-.28 3.44-.28.99 0 1.87 0 2.59.28-.6-1.68-1.64-3.84-7.63-3.84zm-15.32-4.002c1.56 2.6 2.15 3.28 6.03 3.28h7.3l-10.02-12.76c-2.27-2.72-3.43-3.28-5.59-3.28h-5.43l7.71 12.76zm-111.6 19.21v-9.6c0-1.88-.88-3-2.43-3-2 0-3.44 2.16-3.44 5.16v7.32h-3.43v-10.88c0-1.16-.16-3-.16-4h2.71c.28 0 .44.16.44.44v1.88h.16c.44-.72 1.44-2.6 4.59-2.6 3.16 0 5 2.12 5 4.52v10.48h-3.44v.28zm-26.35-3.16c.16 0 .28 0 .28.28 0 .72.16 1.88.16 2.28-.72.28-2.16 1-3.87 1-4.43 0-7.31-2.6-7.31-7.76 0-4.72 2.44-7.76 7.31-7.76 1.55 0 2.99.56 3.87 1 0 .56 0 1.72-.16 2.28 0 .16-.16.28-.28.28h-.28c-1.16-.56-2.15-.88-2.99-.88-2.88 0-4 1.88-4 5 0 2.88 1 5 4 5 1.16 0 2.27-.44 2.87-.72h.4zm11.74 3.16c-.28 0-.44-.16-.56-.44 0-.44-.16-1.44-.16-1.44-.16.28-1.44 2.16-4.43 2.16-3 0-4.59-2.28-4.59-4.72 0-3.44 3.27-5.16 8.3-5.16h.72v-.56c0-1.56-1.16-2.44-3.15-2.44-1.88 0-3.44.72-4 1 0 0-.16.16-.28.16-.16 0-.27-.16-.27-.28 0-.56-.16-1.56-.16-2.28.55-.28 2.59-1 4.87-1 4.43 0 6.3 2 6.3 5.32v5.72c0 2.16.16 3.44.28 4 0-.04-2.71-.04-2.87-.04zm-.84-7.44h-.56c-4.31 0-4.99 1.44-4.99 3 0 1.28.88 2.44 2.44 2.44 2.15 0 3.27-2 3.27-4.16v-1.28h-.16zm-42.24 4.28c.16 0 .28.16.28.28 0 .56.16 2 .16 2.44-.44.16-2.16.72-4.59.72-4.71 0-7.59-2.44-7.59-7.76 0-4.44 2.44-7.76 6.71-7.76 4.31 0 6.31 2.88 6.31 6.44 0 .44 0 1.16-.16 2h-9.46c0 2.6 1.55 4.32 4.59 4.32 1.55 0 2.99-.56 3.43-.88.2.2.2.2.32.2zm-8.3-5.72h6.3c.16-2.44-1.15-3.72-2.99-3.72-2 0-3.15 1.44-3.31 3.72zm-9.31 8.88v-9.44c0-1.72-.72-3-2.43-3-2 0-3.16 2.16-3.16 5.16v7.32h-3.43v-9.6c0-1.56-.72-3-2.44-3-1.99 0-3.15 2.16-3.15 5.32v7.32h-3.43v-10.76c0-1.44-.16-3.44-.16-4h2.71c.28 0 .44.16.44.44v1.88h.16c.16-.44 1.28-2.6 4.43-2.6 2.88 0 4 2 4.31 2.72.28-.56 1.56-2.72 4.44-2.72 2.99 0 4.99 1.56 4.99 4.88v10.32h-3.28v-.24zm24.92-7.16v7.32h-3.44v-11.04c0-1-.16-3.16-.16-3.88h2.72c.28 0 .44.16.44.44v1.88h.16c.28-.56 1.27-2.6 3.99-2.6 1 0 1.56.28 1.72.28 0 .56 0 2-.16 2.44 0 .28-.16.28-.28.28h-.28c-.16-.16-.72-.28-1.44-.28-1.72 0-3.27 1.28-3.27 5.16zm7.14 7.16v-14.76h3.44v14.92h-3.44v-.16zm0-16.92v-3.28h3.44v3.28h-3.44zm-55.09 16.92-1.56-4.44h-8.3l-1.56 4.44h-3.6l7.59-19.48h3.87l7.31 19.48h-3.75zm-5.55-15.92-3.16 8.88h6.31l-3.15-8.88zm198.46 16.2c4.44 0 6.43-1.88 6.43-4.44 0-2.56-1.87-3.72-3.87-4.44-.56-.16-1.16-.44-1.56-.56-1.28-.44-1.99-1-1.99-1.88 0-.88.87-1.56 2.59-1.56 1.56 0 2.88.56 3.27.88.16 0 .16.16.28.16.16 0 .28 0 .28-.28 0-.44.16-1.44.16-2.28-.44-.16-1.87-1-4.31-1-3.59 0-5.87 1.88-5.87 4.44 0 2.44 1.72 3.6 3.44 4.16.44.16 1.15.44 1.55.56 1.88.56 2.44 1.16 2.44 2.16 0 1.16-1.28 1.72-3.28 1.72-1.71 0-2.87-.56-3.43-.88-.16 0-.16-.16-.28-.16-.28 0-.28.28-.28.44 0 .16-.16 1.72-.16 2.16.44.12 2.32.8 4.59.8zm-7.86-3.44c.16 0 .28.16.28.28 0 .56.16 2 .16 2.44-.44.16-2.16.72-4.59.72-4.71 0-7.59-2.44-7.59-7.76 0-4.6 2.44-7.76 6.71-7.76s6.31 2.88 6.31 6.44c0 .44 0 1.16-.16 2h-9.47c0 2.6 1.56 4.32 4.6 4.32 1.55 0 2.99-.56 3.43-.88.04.2.16.2.32.2zm-8.31-5.72h6.31c.16-2.44-1.16-3.72-2.99-3.72-2.16 0-3.32 1.44-3.32 3.72zm-9.46 8.88v-9.6c0-1.88-.88-3-2.43-3-2 0-3.44 2.16-3.44 5.16v7.32h-3.43v-10.88c0-1.16-.16-3-.16-3.88h2.71c.28 0 .44.16.44.44v1.88h.16c.44-.72 1.44-2.6 4.6-2.6 3.15 0 4.99 2.16 4.99 4.6v10.48h-3.44v.08zm-30.62-7.16v7.32h-3.43v-11.04c0-1-.16-3-.16-3.88h2.71c.28 0 .44.16.44.44v1.88h.16c.28-.56 1.28-2.6 3.99-2.6 1 0 1.56.28 1.72.28 0 .56 0 2-.16 2.44 0 .28-.16.28-.28.28h-.28c-.16-.16-.72-.28-1.44-.28-1.55 0-3.27 1.28-3.27 5.16zm10.74 7.16v-20.2h-3.43v20.2h3.43zm-21.04 0v-14.76h3.43v14.92h-3.43v-.16zm-.12-16.92v-3.28h3.43v3.28h-3.43zm24.87 16.92v-14.76h3.44v14.92h-3.44v-.16zm0-16.92v-3.28h3.44v3.28h-3.44zm-29.9 16.92-1.56-4.44h-8.3l-1.56 4.44h-3.59l7.42-19.48h3.88l7.3 19.48h-3.59zm-5.71-15.92-3.15 8.92h6.42l-3.27-8.92zm130.36 23.077c0 .44-.44.88-.88.88s-.88-.44-.88-.88.44-.88.88-.88c.6-.12.88.32.88.88zm-1.56 0c0 .44.28.72.72.72.44 0 .72-.28.72-.72 0-.44-.28-.72-.72-.72-.44 0-.72.32-.72.72zm.72 0-.16.44h-.16v-.88h.28c.16 0 .28.16.28.28 0 .16-.16.28-.16.28l.28.44h-.08l-.28-.56zm0-.12c.16 0 .16 0 .16-.16s0-.16-.16-.16v.32z"/></g><g clip-path="url(#g)"><path fill="#D6D6D6" d="M1848.93 10.35h10.3v.424l-1.66 1.69c-.42.362-.6.845-.6 1.389v26.143h-.42l-19.47-18.113v13.524c-.06.544.18 1.027.6 1.39l1.66 1.69v.422h-10.3v-.422l1.67-1.69c.41-.363.59-.846.59-1.39V9.023h.36l19.41 18.052V13.792c.06-.543-.17-1.026-.53-1.388l-1.67-1.69v-.363h.06zm38.89 20.408c0 5.555-3.87 8.09-10.19 8.09h-16.19v-.422l1.66-1.69c.42-.362.66-.846.6-1.389V13.792c.06-.543-.18-1.026-.6-1.388l-1.66-1.69v-.363h16.37c5.9 0 8.88 2.837 8.88 7.728-.12 2.898-2.15 5.313-4.95 5.857 3.81.664 6.2 2.958 6.2 6.822m-17.93-9.117h7.03c2.14 0 3.33-1.026 3.33-3.018 0-1.993-.95-3.08-3.33-3.08h-7.03v6.098zm11.43 8.393c0-2.536-1.48-3.502-4.52-3.502h-6.91v7.004h6.91c2.56-.06 4.52-.906 4.52-3.502zm23.71 3.985c-4.77 0-8.04-3.744-8.04-9.298 0-5.917 3.63-9.42 8.27-9.42a5.827 5.827 0 0 1 6.02 3.865l.42.12 2.38-9.72-.42-.181a4.174 4.174 0 0 1-2.74 1.026c-1.37 0-3.51-.543-6.07-.543-8.28 0-14.71 5.615-14.71 14.853 0 9.237 6.37 14.792 14.59 14.792 3.99.12 7.8-1.389 10.6-4.287l-3.69-4.528a7.905 7.905 0 0 1-6.61 3.32zm29.47-23.245 1.67 1.69c.42.362.6.845.6 1.389V27.92c0 4.105-2.03 6.098-5.6 6.098s-5.66-1.932-5.66-6.098V13.792c0-.543.18-1.026.6-1.388l1.66-1.69v-.363h-10.77v.422l1.66 1.691c.42.362.66.845.6 1.389v13.886c0 7.91 4.94 11.774 11.91 11.774s11.97-3.864 11.97-11.773V13.852c-.06-.544.18-1.027.59-1.389l1.67-1.69v-.423h-10.84v.422h-.06zm33.47 24.15v-8.21c0-4.891-2.38-7.73-6.55-7.73a6.946 6.946 0 0 0-6.37 3.865v-3.502h-8.04v.423l1.67 1.69c.53.544.59.845.59 1.872v11.773c0 1.027 0 1.39-.59 1.872l-1.67 1.69v.423h10.42v-.422l-1.67-1.69c-.53-.544-.59-.846-.59-1.873v-6.762c0-2.294 1.13-4.166 3.63-4.166 2.14 0 3.16 1.57 3.16 3.864V38.91h8.15v-.422l-1.66-1.69c-.54-.544-.6-.846-.6-1.873m12.63 0V19.287h-8.1v.422l1.66 1.69c.54.544.6.846.6 1.873v11.773c0 1.027 0 1.389-.6 1.872l-1.66 1.69v.423h10.48v-.423l-1.67-1.69c-.54-.544-.59-.845-.59-1.872m-3.04-18.657c1.9 0 3.45-1.509 3.45-3.441v-.12c.06-1.933-1.49-3.503-3.33-3.503h-.12c-1.91-.18-3.63 1.268-3.81 3.2-.18 1.933 1.25 3.683 3.15 3.865h.66zm27.45 2.899h-7.44l-3.46 9.479h-.12l-3.93-9.419h-7.32v.423c1.31 1.026 2.32 2.354 3.04 3.924l7.86 16.121h.41l7.8-16.12c.66-1.57 1.67-2.899 3.04-3.925v-.483h.12zm19 9.78v1.691h-13.34c.42 2.295 2.56 3.925 4.82 3.683a5.31 5.31 0 0 0 4.11-1.69l3.34 3.985a11.86 11.86 0 0 1-7.92 2.596c-6.38 0-10.43-3.925-10.43-10.083-.35-5.434 3.7-10.083 9.06-10.445h1.25c6.43 0 9.23 4.286 9.23 10.143m-6.08-1.811c.12-1.932-1.31-3.623-3.21-3.744h-.3c-2.09-.06-3.87 1.63-3.93 3.804h7.44v-.06zm16.26-4.046v-3.803h-8.04v.422l1.67 1.69c.53.544.59.846.59 1.873v11.773c0 1.027 0 1.389-.59 1.872l-1.67 1.69v.423h10.42v-.423l-1.67-1.69c-.47-.544-.59-.845-.59-1.872v-6.038c0-2.958 1.43-4.528 3.69-4.528 1.07 0 2.09.423 2.86 1.147l1.55-6.098c-.78-.362-1.61-.604-2.5-.543-2.62.06-4.95 1.811-5.78 4.347m20.72 3.562c-2.62-.422-4.64-.422-4.64-2.053 0-.905.77-1.51 2.5-1.51 2.32 0 4.53.786 5.36 2.597l.42.12 1.84-7.486-.41-.181a3.89 3.89 0 0 1-2.62 1.026c-1.31 0-2.51-.543-4.95-.543-4.23 0-8.27 1.57-8.27 6.4 0 3.804 2.97 5.253 5.83 5.736 2.86.483 4.82.543 4.82 2.173 0 .966-.83 1.691-2.56 1.691-2.32 0-4.58-.785-6.43-2.234l-2.74 4.166c2.56 1.811 5.66 2.778 8.76 2.657 5.54 0 8.99-2.476 8.99-6.823 0-3.743-3.16-5.192-6.02-5.736m27.04 9.962 1.67 1.691v.423h-8.04v-2.717c-1.25 2.113-3.57 3.38-6.02 3.2-3.09.241-5.83-2.114-6.13-5.314v-.422c0-4.347 2.92-6.34 9.41-6.52 2.08 0 2.62-.484 2.62-1.691 0-1.208-.95-1.993-3.45-1.993-1.79 0-3.52.785-4.71 2.113l-3.15-3.743a11.67 11.67 0 0 1 8.51-3.019c6.13 0 8.75 2.596 8.75 7.608v8.392c0 1.026.06 1.389.6 1.872m-6.49-6.642c-.83.181-1.67.302-2.5.302-2.68.181-3.57 1.147-3.57 2.476a2.074 2.074 0 0 0 1.96 2.173h.24c1.96.181 3.69-1.207 3.93-3.2v-.362l-.06-1.389zm18.52 6.702c-.54-.543-.6-.845-.6-1.872V7.996h-8.15v.423l1.66 1.69c.54.544.6.846.6 1.872v23.004c0 1.026-.06 1.389-.6 1.871l-1.66 1.691v.423h10.36v-.423l-1.61-1.75z"/></g><g clip-path="url(#h)"><path fill="#D6D6D6" d="M2231.2 39.224V25.24c0-5.28-3.37-8.8-8.8-8.864-2.87-.032-5.82.832-7.88 3.968-1.54-2.464-3.99-3.968-7.39-3.968-2.38 0-4.73.704-6.56 3.296v-2.72h-4.85v22.272h4.91V26.872c0-3.872 2.16-5.92 5.47-5.92 3.21 0 4.85 2.112 4.85 5.888v12.384h4.92V26.872c0-3.872 2.25-5.92 5.47-5.92 3.31 0 4.91 2.112 4.91 5.888v12.384h4.95zm72.78-22.272h-7.97v-6.784h-4.92v6.784h-4.53v4.416h4.53v10.176c0 5.184 2.03 8.256 7.78 8.256 2.12 0 4.53-.64 6.08-1.728l-1.42-4.16c-1.45.832-3.05 1.248-4.31 1.248-2.44 0-3.21-1.504-3.21-3.744V21.368h7.97v-4.416zm41.5-.576c-2.8 0-4.63 1.312-5.91 3.264v-2.688h-4.83v22.272h4.86v-12.48c0-3.68 1.61-5.728 4.79-5.728.99 0 2.02.128 3.05.544l1.51-4.576c-1.06-.416-2.47-.608-3.47-.608zm-62.78 2.336c-2.35-1.536-5.56-2.336-9.13-2.336-5.66 0-9.32 2.688-9.32 7.136 0 3.648 2.7 5.888 7.71 6.56l2.29.32c2.66.384 3.92 1.056 3.92 2.336 0 1.728-1.77 2.688-5.11 2.688-3.38 0-5.82-1.088-7.46-2.336l-2.28 3.776c2.67 1.952 6.04 2.88 9.71 2.88 6.46 0 10.22-3.04 10.22-7.264 0-3.904-2.96-5.952-7.81-6.656l-2.29-.32c-2.12-.288-3.79-.704-3.79-2.176 0-1.632 1.61-2.624 4.28-2.624 2.86 0 5.62 1.088 6.97 1.92l2.09-3.904zm130.45-2.336c-2.8 0-4.63 1.312-5.92 3.264v-2.688h-4.82v22.272h4.85v-12.48c0-3.68 1.61-5.728 4.79-5.728 1 0 2.03.128 3.06.544l1.51-4.576c-1.09-.416-2.48-.608-3.47-.608zm-62.75 11.712c0 6.752 4.72 11.712 11.93 11.712 3.37 0 5.62-.736 8.06-2.656l-2.34-3.904c-1.84 1.312-3.76 2.016-5.85 2.016-3.89-.032-6.75-2.848-6.75-7.136s2.86-7.072 6.75-7.136c2.12 0 4.01.704 5.85 2.016l2.34-3.904c-2.44-1.92-4.69-2.656-8.06-2.656-7.17-.064-11.93 4.896-11.93 11.648zm45.61 0V16.952h-4.85v2.688c-1.54-2.016-3.89-3.264-7.07-3.264-6.27 0-11.19 4.896-11.19 11.712s4.92 11.712 11.19 11.712c3.18 0 5.53-1.248 7.07-3.264v2.688h4.85V28.088zm-18.13 0c0-3.904 2.58-7.136 6.79-7.136 4.01 0 6.75 3.072 6.75 7.136s-2.7 7.136-6.75 7.136c-4.21 0-6.79-3.232-6.79-7.136zm-58.76-11.712c-6.56 0-11.15 4.768-11.15 11.712 0 7.072 4.79 11.712 11.47 11.712 3.38 0 6.46-.832 9.16-3.136l-2.37-3.584c-1.87 1.504-4.28 2.336-6.5 2.336-3.15 0-5.98-1.44-6.68-5.44h16.62c.03-.608.09-1.216.09-1.856-.03-6.976-4.34-11.744-10.64-11.744zm-.06 4.352c3.15 0 5.14 1.952 5.66 5.408h-11.61c.51-3.232 2.48-5.408 5.95-5.408zm122.15 7.36V7.992h-4.85V19.64c-1.55-2.016-3.89-3.264-7.08-3.264-6.26 0-11.18 4.896-11.18 11.712s4.92 11.712 11.18 11.712c3.19 0 5.53-1.248 7.08-3.264v2.688h4.85V28.088zm5.69 9.088c.19 0 .39.032.55.096.16.064.32.16.45.288.13.128.22.288.32.448.06.16.13.352.13.544 0 .192-.04.384-.13.544-.07.16-.19.32-.32.448s-.29.224-.45.32a1.55 1.55 0 0 1-.55.128c-.19 0-.39-.032-.58-.128-.19-.064-.32-.192-.45-.32s-.22-.288-.32-.448c-.06-.16-.13-.352-.13-.544 0-.192.03-.384.13-.544.06-.16.19-.32.32-.448s.29-.224.45-.288c.16-.064.36-.096.58-.096zm0 2.496c.16 0 .29-.032.42-.096s.26-.128.35-.224c.1-.096.19-.224.23-.352.06-.128.09-.288.09-.416 0-.16-.03-.288-.09-.416-.07-.128-.13-.256-.23-.352a.777.777 0 0 0-.35-.224 1.003 1.003 0 0 0-.42-.096c-.16 0-.29.032-.45.096-.13.064-.26.128-.35.224-.1.096-.2.224-.23.352a1.04 1.04 0 0 0-.09.416c0 .16.03.288.09.416.07.128.13.256.23.352.09.096.22.192.35.224.13.064.29.096.45.096zm.06-1.76c.17 0 .29.032.39.128.1.064.13.192.13.32 0 .096-.03.192-.1.256a.476.476 0 0 1-.32.128l.42.48h-.35l-.39-.48h-.13v.48h-.29v-1.312h.64zm-.32.256v.352h.32c.07 0 .13 0 .2-.032.03-.032.06-.064.06-.128s-.03-.096-.06-.128-.1-.032-.2-.032h-.32v-.032zm-23.56-10.08c0-3.904 2.57-7.136 6.78-7.136 4.02 0 6.75 3.072 6.75 7.136s-2.7 7.136-6.75 7.136c-4.21 0-6.78-3.232-6.78-7.136zm-164.42 0V16.952h-4.86v2.688c-1.54-2.016-3.89-3.264-7.07-3.264-6.27 0-11.19 4.896-11.19 11.712s4.92 11.712 11.19 11.712c3.18 0 5.53-1.248 7.07-3.264v2.688h4.86V28.088zm-18.13 0c0-3.904 2.57-7.136 6.78-7.136 4.02 0 6.75 3.072 6.75 7.136s-2.7 7.136-6.75 7.136c-4.21 0-6.78-3.232-6.78-7.136z"/></g><g clip-path="url(#i)"><path fill="#D6D6D6" fill-rule="evenodd" d="m2685.49 0-100.28 42.635c-8.35 3.577-15.39 5.365-21.01 5.365-6.38 0-10.98-2.259-13.89-6.776-3.66-5.836-2.06-15.153 4.22-25.036 3.76-5.74 8.54-11.012 13.23-16.094-1.12 1.788-10.79 17.977-.19 25.6 2.07 1.506 5.07 2.259 8.73 2.259 2.91 0 6.28-.47 10.03-1.412L2685.49 0z" clip-rule="evenodd"/></g><g fill="#D6D6D6" clip-path="url(#j)"><path d="M2817.22 4.992h-25.36c-3.52 0-6.37 2.841-6.37 6.35v25.3c0 3.51 2.85 6.35 6.37 6.35h25.36c3.52 0 6.37-2.84 6.37-6.35v-25.3c0-3.509-2.85-6.35-6.37-6.35zm-.56 29.1c0 1.108-.9 2.006-2.01 2.006h-20.22c-1.11 0-2.01-.898-2.01-2.005v-20.18c0-1.108.9-2.006 2.01-2.006h20.24c1.11 0 2.01.898 2.01 2.005v20.18h-.02z"/><path d="M2800.51 29.145c-.65 0-1.15-.522-1.15-1.148v-8.043c0-.648.52-1.15 1.15-1.15h8.08c.63 0 1.16.523 1.16 1.15v8.043c0 .647-.53 1.148-1.16 1.148h-8.08zm33.19-.547h4.15c.21 2.36 1.8 4.178 5.02 4.178 2.87 0 4.65-1.42 4.65-3.552 0-2.005-1.38-2.904-3.87-3.489l-3.23-.689c-3.51-.773-6.13-3.008-6.13-6.685 0-4.053 3.6-6.81 8.29-6.81 4.97 0 8.15 2.59 8.42 6.434h-4.02c-.48-1.796-1.97-2.862-4.4-2.862-2.55 0-4.33 1.379-4.33 3.155 0 1.775 1.52 2.84 4.16 3.426l3.19.689c3.5.752 5.88 2.862 5.88 6.56 0 4.7-3.54 7.5-8.61 7.5-5.67 0-8.83-3.072-9.17-7.856zm32.65 14.397V36.1l.28-3.009h-.28c-.94 2.173-2.95 3.364-5.67 3.364-4.38 0-7.65-3.552-7.65-9.025 0-5.453 3.27-9.025 7.65-9.025 2.68 0 4.58 1.254 5.67 3.217h.28V18.76h3.6v24.254h-3.88v-.02zm.15-15.564c0-3.489-2.14-5.536-4.75-5.536-2.62 0-4.76 2.026-4.76 5.536 0 3.489 2.14 5.536 4.76 5.536 2.61 0 4.75-2.047 4.75-5.536zm6.62 1.793V18.758h3.87V28.89c0 2.736 1.32 4.073 3.54 4.073 2.73 0 4.49-1.942 4.49-4.95v-9.255h3.87v17.36h-3.6v-3.593h-.27c-.86 2.298-2.73 3.927-5.62 3.927-4.15 0-6.28-2.653-6.28-7.228zm18.14 2.046c0-3.26 2.28-5.16 6.32-5.39l4.8-.313v-1.358c0-1.63-1.19-2.612-3.29-2.612-1.95 0-3.1.982-3.39 2.382h-3.88c.4-3.53 3.33-5.557 7.27-5.557 4.46 0 7.19 1.9 7.19 5.557v12.137h-3.61V32.9h-.27c-.81 2.13-2.51 3.551-5.78 3.551-3.16 0-5.36-2.11-5.36-5.18zm11.12-2.152v-.92l-3.92.272c-2.11.126-3.05.92-3.05 2.486 0 1.316 1.09 2.277 2.61 2.277 2.75 0 4.36-1.775 4.36-4.115zm6.77 7v-17.36h3.6v3.321h.27c.5-2.277 2.24-3.321 4.84-3.321h1.76v3.489h-2.22c-2.52 0-4.38 1.629-4.38 4.72v9.15h-3.87zm28.21-7.977h-13.22c.21 3.197 2.45 4.993 4.92 4.993 2.12 0 3.44-.856 4.19-2.277h3.83c-1.04 3.53-4.14 5.599-8.06 5.599-5.13 0-8.73-3.823-8.73-9.025 0-5.18 3.7-9.025 8.77-9.025 5.11 0 8.44 3.489 8.44 7.834-.02.857-.08 1.295-.14 1.901zm-3.71-2.674c-.13-2.402-2.14-4.032-4.59-4.032-2.3 0-4.25 1.463-4.73 4.032h9.32z"/></g><g fill="#D6D6D6" clip-path="url(#k)"><path d="M3091.38 15.59a14.276 14.276 0 0 0-12.61-7.594h-39.93c-.76 0-1.36.64-1.36 1.408 0 .341.13.725.38.981l8.71 8.79a4.126 4.126 0 0 0 2.89 1.194h28.16c2 0 3.65 1.58 3.65 3.627 0 2.005-1.57 3.67-3.61 3.67h-19.36c-.77 0-1.36.64-1.36 1.407 0 .384.12.726.38.982l8.71 8.79a4.234 4.234 0 0 0 2.88 1.151h8.8c11.42 0 20.05-12.245 13.67-24.405zm21.2 2.392v13.483h3.44c3.65-.043 6.58-3.073 6.54-6.742.08-3.627-2.72-6.613-6.33-6.741h-3.65zm3.44-4.224c6.41 0 11.25 4.864 11.25 10.965 0 6.102-4.84 10.965-11.25 10.965h-7.56c-.3 0-.56-.256-.56-.554V14.312c0-.298.26-.554.56-.554h7.56zm27.77 18.176c3.95 0 7.18-3.2 7.22-7.21.05-4.011-3.18-7.211-7.17-7.254-3.95 0-7.18 3.2-7.22 7.21 0 4.011 3.18 7.254 7.17 7.254zm0-18.688c6.76 0 11.9 5.205 11.9 11.477s-5.19 11.435-11.9 11.435-11.85-5.163-11.85-11.477c0-6.315 5.14-11.435 11.85-11.435zm28.25 18.688c3.95 0 7.18-3.243 7.18-7.253s-3.23-7.21-7.22-7.21c-3.95 0-7.18 3.242-7.18 7.21.04 4.01 3.23 7.253 7.22 7.253zm0-18.688c6.71 0 11.85 5.163 11.85 11.477 0 6.315-5.14 11.435-11.85 11.435s-11.89-5.163-11.89-11.477c0-6.315 5.14-11.435 11.89-11.435zm27.62 4.736h-4.85v5.803h4.85c1.57.085 2.88-1.152 2.97-2.731v-.128c.04-1.579-1.19-2.944-2.76-2.987-.09.043-.17.043-.21.043zm-9.56-3.67a.56.56 0 0 1 .55-.554h9.13c4.34 0 7.48 3.2 7.48 7.21.04 2.731-1.49 5.206-3.91 6.443l4.21 7.467c.17.256.08.597-.13.768-.09.085-.21.085-.34.085h-3.7c-.21 0-.38-.128-.51-.299l-4.03-7.38h-4.08v7.082a.56.56 0 0 1-.55.554h-3.57a.56.56 0 0 1-.55-.554V14.312zm29.38 3.752v13.483h3.44c3.66-.043 6.59-3.073 6.54-6.742.13-3.627-2.71-6.656-6.32-6.741h-3.66zm3.44-4.224c6.42 0 11.26 4.864 11.26 10.965 0 6.102-4.84 10.965-11.26 10.965h-7.56a.56.56 0 0 1-.55-.554V14.394a.56.56 0 0 1 .55-.554h7.56zm25.54 5.385-2.68 7.211h5.31l-2.63-7.21zm-4.21 11.264-1.74 4.822a.602.602 0 0 1-.55.384h-3.78c-.3.042-.55-.17-.6-.512 0-.086 0-.214.05-.299l8.15-20.821c.09-.214.3-.384.55-.342h4.21c.25 0 .47.128.55.342l8.16 20.821c.12.256 0 .597-.26.725-.08.043-.17.043-.3.043h-3.78a.554.554 0 0 1-.55-.384l-1.74-4.821h-8.37v.042zm19.37-10.799c0-3.456 2.98-6.443 7.65-6.443 2.51-.042 4.97.854 6.8 2.56.21.214.25.555.04.769l-.04.042-2.09 2.09a.531.531 0 0 1-.76 0 5.665 5.665 0 0 0-3.61-1.45c-1.87 0-3.27 1.11-3.27 2.347 0 4.096 11.09 1.706 11.09 9.557 0 3.968-3.02 6.998-8.29 6.998-2.93.042-5.77-1.11-7.9-3.2-.21-.214-.25-.555-.04-.769l.04-.042 2.04-2.048a.543.543 0 0 1 .77 0c1.27 1.237 3.01 1.92 4.75 1.962 2.34 0 3.87-1.237 3.87-2.816.04-4.053-11.05-1.706-11.05-9.557zm35.89-5.42v8.234h-9.38V14.27a.569.569 0 0 0-.56-.554h-3.56c-.3 0-.56.256-.56.555v20.82c0 .3.26.555.56.555h3.56c.3 0 .56-.256.56-.554v-8.363h9.38v8.363c0 .298.26.554.56.554h3.56c.3 0 .56-.256.56-.554V14.269a.569.569 0 0 0-.56-.554h-3.56c-.34 0-.56.256-.56.555z"/></g><defs><clipPath id="a"><path fill="#fff" d="M199.312 0h160v48h-160z"/></clipPath><clipPath id="b"><path fill="#fff" d="M459.312 0h182.044v48H459.312z"/></clipPath><clipPath id="c"><path fill="#fff" d="M741.356 0h153.191v48H741.356z"/></clipPath><clipPath id="d"><path fill="#fff" d="M994.547 0h211.765v48H994.547z"/></clipPath><clipPath id="e"><path fill="#fff" d="M1306.31 4h61.867v40h-61.867z"/></clipPath><clipPath id="f"><path fill="#fff" d="M1468.18 4h260.87v40h-260.87z"/></clipPath><clipPath id="g"><path fill="#fff" d="M1829.05 8h266.667v32H1829.05z"/></clipPath><clipPath id="h"><path fill="#fff" d="M2195.72 8h252.632v32H2195.72z"/></clipPath><clipPath id="i"><path fill="#fff" d="M2548.35 0h137.143v48H2548.35z"/></clipPath><clipPath id="j"><path fill="#fff" d="M2785.49 5h152v38h-152z"/></clipPath><clipPath id="k"><path fill="#fff" d="M3037.49 8h266.667v32H3037.49z"/></clipPath></defs></svg>